
<svg xmlns="http://www.w3.org/2000/svg" viewBox="0 0 512 512" width="100" height="100">
  <path fill="#0F172A" d="M256 0C114.6 0 0 114.6 0 256s114.6 256 256 256 256-114.6 256-256S397.4 0 256 0zm0 464c-114.7 0-208-93.3-208-208S141.3 48 256 48s208 93.3 208 208-93.3 208-208 208z"/>
  <path fill="#D4AF37" d="M256 96c-88.4 0-160 71.6-160 160 0 40.8 15.5 77.9 40.9 106.2L96 402.1V192h96v-64h128v64h96v210.1l-59.9-39.9C381.5 333.9 397 296.8 397 256c0-88.4-71.6-160-160-160zm0 272c-61.9 0-112-50.1-112-112s50.1-112 112-112 112 50.1 112 112-50.1 112-112 112z"/>
  <path fill="#0F172A" d="M256 176c-44.1 0-80 35.9-80 80s35.9 80 80 80 80-35.9 80-80-35.9-80-80-80zm0 112c-17.6 0-32-14.4-32-32s14.4-32 32-32 32 14.4 32 32-14.4 32-32 32z"/>
</svg>
